<svg width="486" height="392" viewBox="0 0 486 392" fill="none" xmlns="http://www.w3.org/2000/svg">
<g filter="url(#filter0_b)">
<rect width="1440" height="1024" transform="translate(-509 -84)" fill="white"/>
<path d="M156.12 27C144.267 30.3 131.355 39.2 122.253 50.3C115.586 58.6 101.828 80.4 98.4408 88.2C90.2917 107 89.1275 111.3 87.6458 128C86.905 137.2 81.7192 146.6 75.5808 149.8C73.1467 151.1 71.2417 152.8 71.2417 153.6C71.2417 154.3 69.2308 156.2 66.7967 157.6C61.0817 161 55.5783 166.6 53.7792 170.7C52.9325 172.6 51.5567 174 50.4983 174C48.5933 174 36.74 180.5 35.6817 182.2C35.2583 182.9 35.47 183 36.105 182.6C36.74 182.2 34.7292 186.3 31.5542 191.6C20.9708 209.3 18.6425 220.5 16.3142 265C15.6792 276.8 14.6208 289.4 13.9858 293C13.3508 296.6 12.8217 307.6 12.7158 317.5C12.5042 341.8 13.6683 344.5 29.0142 352.2C33.565 354.5 38.5392 357.3 40.1267 358.5C42.8783 360.6 42.9842 361 41.82 363.4C40.1267 366.9 37.375 382 37.375 387.6V392H149.558H261.742L261.318 389.7C256.556 369 256.873 367.9 267.139 365C271.267 363.8 277.193 362.5 280.474 362C291.269 360.3 292.328 358.6 295.079 338.7C296.878 324.9 297.09 315.9 295.608 304C295.079 299.3 294.127 289.9 293.492 283C292.963 276.1 291.058 261.7 289.258 251C284.39 221 279.098 207 268.727 196.3C263.435 190.9 261.636 189.8 252.746 186.5C242.268 182.7 240.575 181.6 242.586 179.7C243.221 179.1 243.75 177.2 243.75 175.5V172.5L241.739 175.6C238.67 180.3 237.929 180.3 235.389 175.9C233.378 172.5 233.061 171 233.696 166.5C234.119 163.3 234.966 160.9 235.918 160.6C236.977 160.2 237.083 159.5 236.448 157.6C235.813 156.3 235.601 155 235.813 154.8C236.871 153.9 236.342 148 234.754 140.5C233.802 136.1 232.849 131.1 232.532 129.5C232.32 127.8 231.473 124.2 230.627 121.5C229.886 118.7 228.616 112.4 227.981 107.5C224.7 82.8 223.959 80.3 215.387 61.1C210.942 51.1 203.428 40.5 197.924 36.6C196.019 35.3 192.209 33.7 189.458 33.1C186.388 32.4 183.425 30.9 182.049 29.4C177.816 24.8 167.338 23.9 156.12 27ZM192.527 56.3C193.691 57.5 196.125 60.7 197.713 63.5C200.464 68 200.782 69.5 200.782 78L200.888 87.5L191.998 88.2C182.049 89 180.568 89.8 179.086 95.6C178.239 99.1 178.451 99.7 180.673 101.5C181.943 102.6 183.425 104.3 183.743 105.2C184.06 106.1 186.283 107.4 188.611 108.1C193.268 109.4 198.665 108.6 197.924 106.7C197.607 105.9 198.877 105.4 201.417 105.2L205.333 105L206.073 110C206.92 116.3 205.968 121.7 203.216 125.2C199.194 130.3 193.797 128.1 187.129 118.7C183.531 113.7 183.425 113.6 183.531 116.5C183.531 118.2 183.954 121.6 184.378 124.1C185.436 130.2 185.013 131.1 181.732 129.9C180.25 129.4 177.816 129 176.228 129H173.371L176.228 126.7C177.71 125.5 179.298 123.5 179.721 122.2C180.356 120.2 180.038 120 176.652 120C174.429 120 171.36 119 169.032 117.5C166.809 116.1 164.481 115.1 163.74 115.4C161.306 116.3 160.036 113.6 161.729 111.2C162.682 110.1 162.999 108.9 162.47 108.7C161.412 108 158.554 110.1 157.813 112.1C156.967 114.1 150.934 118.5 147.865 119.4C142.785 120.8 138.446 114.4 137.599 104.2C137.176 98.8 139.187 98.1 145.854 101.5C151.463 104.3 156.438 104.7 159.613 102.6C160.777 101.9 162.999 101.4 164.587 101.6C168.714 102 170.619 100.1 171.36 94.8C172.207 89 171.254 87.6 163.528 84.3C160.353 83 158.131 81.6 158.448 81.3C158.766 80.9 158.448 80 157.602 79.1C155.697 77.1 155.273 68.4 156.861 64.6C157.496 63 157.813 61.5 157.496 61.2C156.332 60 163.74 57 170.408 55.9C174.429 55.3 179.298 54.4 181.308 54C186.177 52.9 189.669 53.6 192.527 56.3ZM157.284 99.7C156.543 99.9 155.273 99.9 154.638 99.7C153.898 99.4 154.427 99.2 155.908 99.2C157.39 99.2 157.919 99.4 157.284 99.7ZM194.22 103.2C193.373 104 193.268 103.6 193.691 101.9C194.114 100.6 194.538 100.1 194.855 100.9C195.067 101.6 194.749 102.7 194.22 103.2ZM194.326 106.7C193.585 106.9 192.315 106.9 191.68 106.7C190.939 106.4 191.468 106.2 192.95 106.2C194.432 106.2 194.961 106.4 194.326 106.7ZM155.908 117.7C155.803 119.1 152.733 122.4 152.098 121.8C151.463 121.1 153.898 117 155.062 117C155.591 117 155.908 117.3 155.908 117.7ZM147.548 132.6C146.489 134.4 146.489 134.3 146.383 132.2C146.383 131 145.96 130 145.325 130C144.796 130 144.267 130.9 144.267 132C144.267 134.4 142.679 134.7 141.727 132.4C140.668 129.8 140.986 129.2 143.526 128.8C146.913 128.2 149.029 130.3 147.548 132.6ZM178.451 133.8C180.991 135.7 189.246 136 191.786 134.3C193.268 133.4 194.538 133.1 195.173 133.7C196.337 134.8 195.384 138 193.797 138C191.786 138 189.775 140.9 189.775 143.8C189.775 146.2 188.505 147.8 183.637 151.9C173.583 160.1 167.127 161.2 158.872 156C151.887 151.6 150.299 149.6 150.088 144.5L149.77 140L153.051 141.8C155.168 143 156.332 143.1 156.649 142.4C157.073 141.1 160.883 141.7 162.999 143.2C163.74 143.7 165.328 143.8 166.703 143.4C168.079 143 169.455 142.7 169.984 142.8C170.408 142.9 170.725 142.5 170.725 142C170.725 141.4 169.561 141 168.185 141C166.809 141 164.798 140.7 163.74 140.3C162.047 139.7 162.047 139.6 163.952 138.9C165.751 138.2 165.751 138.1 163.528 138.1C162.047 138 161.306 137.6 161.835 136.9C162.258 136.3 163.846 136 165.857 136.4C168.608 136.9 168.82 136.8 167.444 135.7C166.492 135.1 165.963 133.9 166.28 133.1C166.809 131.6 176.228 132.1 178.451 133.8ZM85 156.5C85 157.9 84.5767 159 83.9417 159C83.4125 159 82.8833 157.9 82.8833 156.5C82.8833 155.1 83.4125 154 83.9417 154C84.5767 154 85 155.1 85 156.5ZM80.0258 159.2C80.4492 160.4 80.1317 162 79.6025 162.7C78.1208 164.3 72.0883 167.2 71.4533 166.5C70.7125 165.8 74.3108 161 76.11 160.3C76.9567 160 77.5917 159.2 77.5917 158.4C77.5917 156.2 79.3908 156.8 80.0258 159.2ZM69.6542 160C69.3367 160.5 67.7492 161 66.1617 160.9C63.6217 160.9 63.5158 160.8 65.4208 160C68.3842 158.8 70.395 158.8 69.6542 160ZM67.9608 165.2C65.4208 168.6 62.775 170.9 61.505 171C60.1292 171 60.5525 166.5 62.0342 164.8C63.0925 163.4 64.3625 162.9 69.4425 162.1C69.9717 162.1 69.2308 163.5 67.9608 165.2ZM186.177 168.3C185.859 173.5 184.907 176.3 180.885 183.7C176.863 191.1 175.382 192.9 173.053 193.4C168.185 194.3 159.083 199.9 156.861 203.3C155.379 205.5 154.85 207.6 155.273 210.2C155.591 213.5 155.379 214 153.686 214C151.146 214 133.789 203.4 132.943 201.3C132.096 199.4 134.424 198 138.446 198C144.161 198 149.664 195.9 154.215 192.1C162.893 184.8 170.619 180 173.688 180C175.911 180 176.969 179.4 177.393 178C177.816 176.3 177.604 176 175.911 176.5C174.218 177 174.535 176.2 177.604 172.5C179.721 169.9 182.155 166.4 183.002 164.9C185.542 160.2 186.706 161.4 186.177 168.3ZM57.1658 170.2C56.8483 171 56.5308 170.7 56.5308 169.6C56.425 168.5 56.7425 167.9 57.06 168.3C57.3775 168.6 57.4833 169.5 57.1658 170.2ZM62.775 178C61.9283 178.5 60.0233 179 58.5417 179C56.425 179 56.2133 178.8 57.4833 178C58.33 177.5 60.235 177 61.7167 177C63.8333 177 64.045 177.2 62.775 178ZM69.6542 178.6C71.665 179.6 74.205 180 76.5333 179.6C79.285 179.2 81.2958 179.7 84.4708 181.5C89.1275 184.2 88.81 184.9 84.0475 182.5C82.1425 181.6 79.6025 181.3 77.1683 181.7C73.2525 182.3 64.8917 179.7 64.8917 177.8C64.8917 176.6 66.0558 176.8 69.6542 178.6ZM193.479 187.7C189.14 194.8 183.108 203.1 182.578 202.6C181.732 201.8 187.447 191.1 190.939 187C195.596 181.6 196.972 181.9 193.479 187.7ZM71.3475 186.6C73.0408 188 73.8875 188.1 76.11 187.2C80.1317 185.4 81.7192 185.7 85.8467 189.1C88.9158 191.7 90.08 192.1 93.1492 191.5C96.0067 191 96.7475 191.2 96.43 192.2C96.1125 192.9 94.3133 193.6 92.3025 193.8C89.5508 194 87.8575 193.3 85.1058 191C83.095 189.3 80.8725 188.1 80.1317 188.4C75.3692 190.1 71.5592 190.1 69.125 188.2C67.22 186.7 65.5267 186.4 62.0342 186.8C57.06 187.3 56.1075 186.5 59.9175 185C63.0925 183.7 68.9133 184.5 71.3475 186.6ZM246.713 186.7C245.126 186.9 242.268 186.9 240.363 186.7C238.458 186.5 239.728 186.3 243.221 186.3C246.713 186.3 248.301 186.5 246.713 186.7ZM258.567 190.5C262.906 192.1 260.789 192.4 255.286 191C252.323 190.2 250.523 190.3 247.348 191.6C244.385 192.8 241.633 193 237.188 192.6C233.696 192.2 229.251 192.4 226.711 193C222.054 194.2 217.292 193.7 217.292 191.9C217.292 191.2 218.456 191.1 220.361 191.5C222.054 191.8 225.441 191.6 227.769 190.9C230.944 190 233.061 190 236.659 190.8C240.469 191.7 242.268 191.7 245.443 190.6C250.629 188.8 253.804 188.8 258.567 190.5ZM86.6933 197.1C90.8208 200.9 91.4558 201.2 94.3133 200.2C97.5942 199.1 101.933 199.6 101.933 201C101.933 201.4 99.1817 202.1 95.9008 202.5C89.8683 203.2 89.7625 203.2 86.4817 199.6C82.9892 195.7 80.7667 195.3 76.5333 197.4C74.3108 198.6 73.3583 198.6 70.395 197.5C68.2783 196.6 66.0558 196.4 64.5742 196.9C61.9283 197.7 58.5417 197.3 58.5417 196C58.5417 194.6 66.2675 194.2 70.9242 195.3C74.5225 196.2 75.6867 196.1 77.8033 194.7C81.2958 192.4 81.825 192.5 86.6933 197.1ZM258.567 195.8C258.567 196.2 256.979 196.4 255.074 196.2C252.64 195.9 249.783 196.7 245.973 198.5C240.893 201 240.046 201.2 236.342 200.1C232.955 199.2 231.05 199.2 226.499 200.5C221.631 201.8 220.361 201.9 217.292 200.7C213.27 199 214.752 197.5 218.985 199C221.102 199.8 222.901 199.7 226.393 198.4C230.415 197 231.685 196.9 235.813 198C240.046 199.1 240.998 199 245.02 197.1C249.465 195.1 258.567 194.2 258.567 195.8ZM171.783 199C171.783 199.5 170.302 201.6 168.397 203.7C166.492 205.8 164.798 207.7 164.693 207.9C163.634 209.2 161.094 205 161.729 203.1C162.788 199.8 171.783 196.1 171.783 199ZM257.085 202.2C257.614 203 256.873 203.1 254.545 202.7C251.793 202.2 250.523 202.7 246.925 205.5C242.268 209.2 239.305 209.8 234.754 207.8C232.532 206.9 230.944 207 226.393 208.3C221.948 209.7 220.149 209.8 217.398 208.9C214.646 208 213.588 208.1 211.365 209.5C208.402 211.3 206.814 210.8 208.719 208.6C210.413 206.6 215.598 205.9 219.303 207.1C221.737 207.9 223.113 207.8 225.758 206.5C229.039 204.9 231.791 204.9 238.564 206.5C240.575 207 242.586 206.4 246.396 204.1C251.793 200.9 255.815 200.2 257.085 202.2ZM87.9633 206C91.2442 209.8 91.4558 209.9 96.6417 209.3C100.769 208.9 102.463 209.1 104.791 210.6C106.378 211.7 108.918 213 110.4 213.7L113.046 214.8L110.083 214.9C108.389 215 105.638 214.1 103.944 212.9C101.51 211.3 99.9225 211 96.3242 211.5C92.7258 212 91.35 211.8 89.0217 210.1C87.4342 208.9 85.8467 207 85.5292 205.9C84.8942 204 84.2592 203.9 80.4492 204.4C76.745 205 76.3217 204.9 77.5917 203.5C80.0258 200.7 84.365 201.7 87.9633 206ZM71.1358 205.1C72.935 205.7 74.4167 206.6 74.4167 207.1C74.4167 208.3 70.8183 208.2 69.5483 207C68.8075 206.3 67.3258 206.3 64.9975 207.1C60.9758 208.4 59.2825 207.4 62.14 205.4C64.68 203.7 66.6908 203.6 71.1358 205.1ZM160.671 211.1C160.036 212 159.507 211.8 158.343 210.5C157.602 209.4 156.967 207.9 156.967 207.1C156.967 205.9 157.496 206 159.189 207.7C160.565 209 161.094 210.3 160.671 211.1ZM254.757 209.6C255.709 209.9 256.45 210.8 256.45 211.6C256.45 213.2 254.757 213.5 253.804 212C252.534 210 248.936 211.1 245.232 214.5C241.316 218.2 238.67 218.8 235.283 216.8C233.696 215.8 232.532 215.8 229.674 216.8C225.335 218.3 221.313 218.3 218.033 216.9C216.022 216 214.858 216.2 211.894 217.9C208.084 220.1 203.004 220.7 201.946 219C201.523 218.4 202.475 218 204.063 218C205.544 218 208.19 217.3 209.989 216.5C211.788 215.6 215.704 215 219.726 215C223.324 215 228.404 215 231.05 214.9C233.696 214.8 236.977 215.1 238.564 215.5C240.681 216 242.057 215.5 245.443 212.6C249.571 209.1 251.582 208.4 254.757 209.6ZM87.7517 214.5C90.2917 217.7 90.9267 218 96.3242 218C100.558 218 102.992 218.6 105.214 220.1C108.283 222.1 111.353 222.2 117.808 220.5C119.502 220 126.91 223.8 125.958 224.6C125.64 224.9 123.841 224.4 122.042 223.5C119.29 222.2 118.02 222 116.009 222.9C112.199 224.6 107.013 224.2 104.05 222C102.145 220.6 99.7108 220 95.3717 220C89.2333 220 87.3283 219 84.8942 214.8C84.0475 213.2 83.095 212.9 80.6608 213.4C78.9675 213.7 77.5917 213.6 77.5917 213.1C77.5917 211.7 78.9675 211 81.9308 211C84.0475 211 85.635 212 87.7517 214.5ZM73.7817 215.8C73.9933 216.2 72.4058 216.6 70.0775 216.6C66.0558 216.7 65.95 216.7 67.6433 214.9C69.3367 213.1 72.3 213.5 73.7817 215.8ZM65.95 219C65.95 219.5 65.5267 220 64.8917 220C64.3625 220 63.8333 219.5 63.8333 219C63.8333 218.4 64.3625 218 64.8917 218C65.5267 218 65.95 218.4 65.95 219ZM253.275 221C253.275 221.5 252.428 222 251.264 222C250.206 222 248.618 222.7 247.878 223.7C245.443 226.4 240.575 227.9 236.977 226.9C235.072 226.4 232.32 226.4 229.992 227.1C226.711 228.1 225.335 227.9 221.102 226.2C216.128 224.1 216.128 224.1 212.741 226C208.825 228.3 205.333 228.5 200.888 226.6C198.242 225.5 197.183 225.5 194.643 226.7C192.209 227.9 191.786 227.9 192.103 226.8C192.95 224.4 197.818 223.5 202.475 225C206.285 226.2 207.238 226.1 210.518 224.7C215.069 222.6 218.562 222.6 222.478 224.5C224.806 225.6 226.288 225.7 229.251 224.8C232.003 224 234.225 224 237.612 224.8C241.951 225.9 242.268 225.8 245.126 223C247.983 220.1 253.275 218.8 253.275 221ZM85.5292 224.1C89.0217 227 89.6567 227.2 94.6308 226.6C99.2875 226 100.663 226.3 104.685 228.5C108.283 230.5 109.765 230.9 111.353 230C114.104 228.6 121.618 228.7 124.476 230.2C125.746 230.8 129.768 231.3 133.472 231.1C138.658 231 140.986 231.4 143.632 233C145.643 234.1 148.923 235 151.04 235C153.368 235 154.744 235.4 154.321 236C153.157 237.7 147.336 237.1 143.526 234.9C140.563 233.1 138.34 232.7 132.519 232.9C127.651 233 124.264 232.6 122.042 231.5C118.973 230 118.338 230 114.633 231.4C110.188 233.1 107.013 232.6 102.674 229.8C100.24 228.1 99.2875 228 96.0067 229C91.1383 230.5 88.175 229.7 84.1533 225.9C82.1425 223.9 80.2375 223 79.285 223.3C77.5917 223.9 76.9567 222.9 78.3325 221.7C79.7083 220.3 81.825 221.1 85.5292 224.1ZM152.098 226.7C156.332 227 157.813 227.5 156.861 228.1C154.638 229.4 147.23 229.2 143.949 227.7C140.563 226.2 140.139 224.5 143.526 225.5C144.796 225.9 148.712 226.5 152.098 226.7ZM177.075 227.4C177.075 227.6 176.334 228 175.488 228.4C174.641 228.7 173.9 228.5 173.9 228C173.9 227.4 174.641 227 175.488 227C176.334 227 177.075 227.2 177.075 227.4ZM189.246 233.2C191.045 233.2 194.22 232.8 196.443 232.5C199.194 232 201.523 232.3 204.274 233.5C207.767 235.1 208.296 235.1 211.683 233.6C216.445 231.5 218.985 231.6 222.795 234.2C225.653 236 226.499 236.2 229.357 235.2C233.59 233.7 237.4 233.7 241.104 235C243.221 235.7 244.703 235.6 247.031 234.4C250.947 232.5 252.217 233.3 249.571 236C247.348 238.3 245.126 238.5 239.411 236.8C236.13 235.9 234.331 236 230.944 237C226.923 238.3 226.288 238.2 221.948 236C218.138 234.2 216.763 233.9 214.858 234.8C210.095 236.9 208.296 237 203.428 235.4C199.088 233.9 197.818 233.8 194.22 234.9C190.728 236 189.034 236 184.589 234.9C179.827 233.8 178.768 233.8 175.382 235.4C170.408 237.6 169.455 236.7 174.006 234C176.863 232.3 178.557 232 181.838 232.6C184.166 232.9 187.553 233.2 189.246 233.2ZM83.4125 235.6C86.3758 237.5 88.175 238 90.1858 237.5C97.2767 235.9 98.97 235.9 102.674 237.5C106.061 239 107.119 239.1 112.199 237.9C117.279 236.8 118.655 236.9 123.418 238.4C127.757 239.8 129.556 239.9 131.884 239.1C136.753 237.3 141.621 238.8 150.511 244.7C150.723 244.9 150.723 245.3 150.405 245.6C149.664 246.2 143.526 243.5 140.986 241.4C139.61 240.2 138.34 240.2 133.789 241.2C129.027 242.2 127.439 242.1 122.783 240.6C117.703 239 116.856 239 112.728 240.4C108.601 241.8 107.754 241.8 103.733 240.4C97.065 238 94.8425 237.7 94.1017 238.9C92.7258 241 85.3175 240.2 82.0367 237.5C80.2375 236.1 78.1208 235 77.0625 235C76.11 235 75.6867 234.5 76.0042 234C77.0625 232.4 79.1792 232.8 83.4125 235.6ZM187.023 241.2C190.41 242.1 192.738 242.1 195.384 241.3C198.348 240.5 200.147 240.6 205.121 242.2C209.883 243.8 211.683 244 213.799 243.1C217.503 241.5 220.255 241.7 224.383 244.1C227.875 246.2 228.193 246.2 231.685 244.6C233.696 243.7 236.236 243 237.294 243C239.199 243 246.819 247.9 246.925 249.2C246.925 250.9 243.962 249.9 241.633 247.5C238.776 244.7 236.765 244.4 233.802 246.5C230.944 248.5 228.616 248.4 223.43 245.9C219.938 244.2 218.562 244 216.551 244.9C212.953 246.5 209.989 246.2 204.803 244C201.205 242.4 199.723 242.3 198.03 243.1C194.961 244.7 188.928 244.4 184.166 242.5C180.568 241.1 179.933 241.1 176.863 242.6C172.524 244.7 167.55 246.1 167.55 245.1C167.55 243.9 176.334 240.1 179.403 240.1C180.991 240 184.483 240.5 187.023 241.2ZM81.9308 247.7C84.5767 249.2 85.4233 249.3 88.4925 248.1C94.3133 245.8 96.3242 245.8 100.346 247.6C103.733 249.1 105.003 249.2 108.918 248.2C115.374 246.6 119.502 246.7 122.677 248.7C125.005 250.1 126.063 250.2 130.085 249.2C137.599 247.3 140.668 247.7 144.478 251C148.5 254.4 146.701 255 141.938 251.8C138.975 249.9 138.234 249.8 134.001 250.8C127.651 252.4 123.841 252.3 119.396 250.3C115.903 248.7 115.268 248.7 110.929 250.2C105.849 252 102.039 251.8 97.7 249.3C95.16 247.9 94.6308 247.9 91.5617 249.4C86.905 251.6 83.4125 251.4 78.8617 248.5C74.3108 245.6 76.9567 244.9 81.9308 247.7ZM188.399 251.1C191.257 252.2 192.738 252.2 197.289 251.1C202.369 249.8 203.004 249.9 207.873 252.1C212.423 254.1 213.588 254.2 216.657 253.2C221.525 251.5 223.218 251.7 227.875 254.2C231.368 256.1 232.426 256.3 234.225 255.2C236.236 254.1 240.575 253.5 240.575 254.4C240.575 254.6 240.893 255.7 241.316 256.7C241.951 258.3 241.845 258.3 240.152 257.1C238.776 256 238.035 256 237.188 256.8C235.283 258.6 231.156 258.2 227.24 255.9C223.959 254 223.113 253.9 218.562 255C214.011 256.1 213.058 256 207.873 254C203.639 252.2 201.84 251.9 200.464 252.7C196.443 255.1 192.103 255.2 186.706 252.9C181.52 250.8 181.097 250.8 176.758 252.4C171.889 254.1 163.317 254.6 163.317 253.1C163.317 252.5 165.222 252.1 167.444 252.2C169.773 252.2 172.736 251.5 174.112 250.6C176.863 248.7 182.896 248.9 188.399 251.1ZM98.97 258.6C101.933 260 102.568 260 106.59 258.6C112.305 256.5 114.422 256.6 120.348 259C124.899 261 125.534 261 129.979 259.5C132.625 258.7 135.483 258 136.329 258C138.975 258 143.208 260.3 143.208 261.7C143.208 263.4 142.679 263.3 139.504 261.4C137.07 259.9 136.541 259.9 131.884 261.4C125.428 263.5 123.629 263.4 118.126 260.9C113.787 258.9 113.363 258.9 109.342 260.4C103.627 262.5 99.605 262.4 95.16 259.9L91.4558 257.9L87.2225 259.9C82.2483 262.4 80.4492 262.5 78.7558 260.6C77.8033 259.5 78.015 259.4 80.1317 259.7C81.5075 260 84.0475 259.5 85.635 258.6C89.6567 256.6 94.8425 256.6 98.97 258.6ZM190.516 262.1C193.479 263.2 194.749 263.2 198.983 261.7C204.168 259.9 207.661 260.3 213.058 263C214.963 264 216.657 264 221.102 263C226.393 261.8 226.817 261.8 231.473 264.4C235.495 266.6 236.659 266.8 238.247 265.9C240.787 264.4 243.221 265.2 244.914 268.2C246.184 270.5 246.184 270.5 243.962 268.7C242.163 267.1 241.528 267.1 239.623 268.2C237.612 269.3 236.659 269.1 231.791 266.6C227.134 264.3 225.758 263.9 223.853 264.9C220.467 266.6 214.434 266.2 209.672 263.9C205.544 261.9 205.227 261.9 201.311 263.5C196.866 265.4 191.257 265.2 185.542 262.7C182.049 261.3 181.52 261.3 177.71 263.1C172.842 265.3 169.984 265.5 164.269 263.8C159.189 262.4 158.66 260.4 163.634 261.5C168.714 262.7 172.842 262.5 177.498 260.8C181.732 259.2 183.213 259.4 190.516 262.1ZM94.9483 269.5C97.5942 271.4 101.616 271.4 105.108 269.5C108.601 267.6 113.998 267.6 118.02 269.6C120.454 270.8 122.465 271 125.64 270.5C133.154 269.2 139.293 269.4 139.822 270.9C140.139 271.9 139.504 272.1 137.176 271.6C135.377 271.2 132.519 271.5 130.191 272.5C125.005 274.5 121.936 274.4 116.327 271.9C111.882 269.8 111.458 269.8 107.331 271.4C101.51 273.5 96.43 273.4 92.3025 271.1C88.9158 269.1 88.81 269.1 84.8942 271.1C80.555 273.1 77.0625 273.6 76.11 272.1C75.6867 271.6 76.4275 271.4 77.5917 271.7C78.7558 272 80.8725 271.3 82.5658 270.1C86.0583 267.7 91.985 267.4 94.9483 269.5ZM188.928 272.2C193.691 274.1 194.749 274.2 198.665 273.1C207.132 270.7 207.873 270.7 213.164 273.1C218.033 275.2 218.773 275.3 223.642 274.1C228.087 273 229.251 273.1 231.791 274.4C239.728 278.5 239.411 278.4 242.268 276.9C244.703 275.7 245.126 275.8 246.502 277.5C247.348 278.5 247.983 279.8 247.983 280.4C247.983 280.9 247.348 280.6 246.608 279.6C245.232 277.9 245.02 277.9 242.586 279.3C240.469 280.6 239.623 280.7 237.823 279.7C228.616 274.7 229.357 274.9 225.123 276.6C220.784 278.3 217.821 277.9 211.259 274.7C207.026 272.6 206.708 272.6 203.004 274.3C197.924 276.6 192.738 276.4 187.553 273.9L183.213 271.9L177.498 274.1L171.783 276.4L165.751 274.5C162.364 273.4 158.766 272.6 157.708 272.8C156.649 272.9 156.12 272.5 156.438 272C157.39 270.6 161.2 270.8 166.703 272.5C171.148 274 171.783 274 176.652 272.1C183.213 269.6 182.578 269.6 188.928 272.2ZM92.62 282.1C97.1708 284.3 98.4408 284.2 106.378 281.4C111.247 279.6 111.564 279.6 117.279 281.5C122.888 283.3 123.523 283.3 128.709 281.7C136.541 279.3 137.176 281.3 129.45 284L122.888 286.3L117.068 284C110.718 281.5 111.564 281.5 101.828 285.3C98.8642 286.4 91.8792 284.6 87.54 281.5C84.4708 279.3 87.6458 279.7 92.62 282.1ZM164.904 283.2C169.561 285.3 169.773 285.4 174.641 283.7C181.308 281.5 184.589 281.6 190.41 284.2C195.173 286.2 195.49 286.3 200.253 284.7C202.898 283.7 206.073 283 207.238 283C210.201 283.1 216.763 286.6 215.387 287.4C214.858 287.7 212.847 287.2 211.048 286.3C207.978 284.6 207.555 284.6 202.687 286.3C196.019 288.5 194.643 288.4 188.188 285.6L183.002 283.3L176.969 285.4L170.937 287.4L165.01 285.1C159.295 282.9 157.813 282.8 153.58 284.5C152.416 284.9 151.675 284.8 151.675 284.1C151.675 283.2 156.12 281.5 159.295 281.1C159.718 281 162.258 282 164.904 283.2ZM164.904 295.7C166.068 296.4 166.386 297 165.751 297C163.846 297 159.083 294.8 159.083 293.9C159.083 292.9 161.941 293.8 164.904 295.7ZM184.378 294.4C183.319 295.3 176.017 295.8 176.546 294.9C176.969 294.4 178.874 294 180.991 294C183.108 294 184.589 294.2 184.378 294.4ZM217.821 304.1C217.398 304.6 216.445 305 215.493 305C214.117 305 214.117 304.7 215.175 303.5C216.551 302 218.879 302.4 217.821 304.1ZM229.992 304C229.145 304.5 227.24 305 225.758 305C223.642 305 223.43 304.8 224.7 304C225.547 303.5 227.452 303 228.933 303C231.05 303 231.262 303.2 229.992 304ZM140.139 307L142.679 309L138.869 308.8C135.8 308.6 135.165 308.3 135.588 306.8C136.223 304.5 137.07 304.5 140.139 307ZM226.817 306.2C227.875 305.9 228.087 306.1 227.346 306.8C225.864 308.2 215.81 309.5 216.763 308.1C217.08 307.5 218.35 307 219.514 307C220.678 307 221.313 306.6 220.996 306C220.573 305.4 221.208 305.3 222.795 305.9C224.171 306.3 225.97 306.5 226.817 306.2ZM151.358 311.9C151.252 313.9 150.617 315.4 150.088 315.2C149.453 315 149.135 313.8 149.241 312.5C149.347 310.8 148.923 310.3 147.865 310.7C147.018 311 146.383 310.6 146.383 309.8C146.383 307.7 147.23 307.1 149.664 307.7C151.252 308.1 151.675 309 151.358 311.9ZM136.118 313C136.435 314.1 136.223 315.3 135.694 315.6C135.165 315.9 134.742 315 134.742 313.6C134.742 310.5 135.377 310.2 136.118 313ZM141.198 317.3C139.61 318.8 138.658 317.5 139.504 314.9C140.245 312.9 140.351 312.8 141.303 314.4C142.044 315.6 142.044 316.5 141.198 317.3ZM232.532 314.7C234.543 315.6 235.918 316.8 235.601 317.3C235.178 317.9 235.601 318.1 236.659 317.7C237.612 317.4 240.152 318 242.374 319.1C244.597 320.2 245.443 320.9 244.279 320.6C243.115 320.3 239.834 319.8 236.977 319.4C233.59 319 232.32 318.5 233.273 317.9C234.543 317.2 234.437 316.8 233.167 316C230.521 314.4 222.583 313.6 221.208 314.9C220.573 315.5 218.562 315.9 216.868 315.9C215.069 315.8 214.434 315.6 215.493 315.3C216.445 315.1 217.292 314.4 217.292 313.9C217.292 312.4 228.616 312.9 232.532 314.7ZM144.267 318.5C143.208 319.7 143.314 320 145.113 320C146.278 320 147.548 319.4 147.759 318.7C148.183 317.8 148.606 317.9 149.453 319C150.193 320 150.088 320.8 149.347 321.7C147.865 323.4 145.854 323.3 143.738 321.4C142.468 320.2 142.362 319.5 143.314 318.4C143.949 317.6 144.796 317 145.008 317C145.325 317 145.008 317.7 144.267 318.5ZM181.308 318.5C180.568 319.4 179.721 319.8 179.509 319.6C178.768 318.9 180.25 317 181.52 317C182.155 317 182.155 317.6 181.308 318.5ZM198.983 319.2C198.665 320 198.348 319.7 198.348 318.6C198.242 317.5 198.559 316.9 198.877 317.3C199.194 317.6 199.3 318.5 198.983 319.2ZM138.975 319C138.975 319.5 138.552 320 138.023 320C137.388 320 136.647 319.5 136.329 319C136.012 318.4 136.435 318 137.282 318C138.234 318 138.975 318.4 138.975 319ZM165.328 322.7C165.328 326.1 165.222 326.3 164.163 324.3C163.528 323.1 163.317 321.4 163.634 320.6C164.798 317.9 165.433 318.8 165.328 322.7ZM155.908 323.2C155.908 324.8 155.591 325.1 154.744 324.3C154.109 323.7 153.898 322.7 154.215 322.1C155.379 320.4 155.908 320.8 155.908 323.2ZM236.13 321.6C238.035 322.1 238.247 322.5 237.294 323.6C236.659 324.4 235.283 325 234.331 324.9C233.273 324.9 233.061 324.7 234.013 324.3C234.648 324.1 235.072 323.4 234.648 322.9C233.802 321.5 232.108 321.8 232.108 323.5C232.108 324.3 231.156 325 230.098 325C228.616 325 228.087 324.4 228.193 323C228.298 320.9 231.262 320.4 236.13 321.6ZM140.563 323C140.245 323.5 140.668 324 141.515 324C142.468 324 143.208 324.4 143.208 325C143.208 326.5 140.351 326.2 139.716 324.6C139.398 323.8 139.398 322.9 139.716 322.6C140.774 321.6 141.303 321.9 140.563 323ZM157.708 329.7C157.39 330.7 157.178 330.1 157.178 328.5C157.178 326.8 157.39 326.1 157.708 326.7C157.919 327.4 157.919 328.8 157.708 329.7ZM245.338 327C245.655 327.5 245.549 328 244.914 328C244.385 328 243.538 327.5 243.221 327C242.903 326.4 243.009 326 243.644 326C244.173 326 245.02 326.4 245.338 327ZM155.273 330.2C154.956 330.6 154.321 331 153.686 331C153.157 331 152.733 330.6 152.733 330.2C152.733 329.7 153.474 329.3 154.321 329.3C155.168 329.3 155.591 329.7 155.273 330.2ZM203.533 331.5C203.533 332.9 203.11 334 202.475 334C201.946 334 201.417 332.9 201.417 331.5C201.417 330.1 201.946 329 202.475 329C203.11 329 203.533 330.1 203.533 331.5ZM245.973 330.1C244.279 330.7 243.009 330.7 242.268 330C241.528 329.3 242.374 329 244.914 329.1C248.301 329.1 248.407 329.2 245.973 330.1ZM195.808 334C195.913 335.1 195.596 336 194.961 336C194.432 336 194.008 336.7 194.008 337.5C194.008 338.3 193.585 339 192.95 339C191.468 339 191.574 334.7 193.162 333.2C194.961 331.5 195.702 331.7 195.808 334ZM187.658 333.9C187.658 334.5 187.235 335.2 186.6 335.5C186.071 335.8 185.542 335.4 185.542 334.6C185.542 333.7 186.071 333 186.6 333C187.235 333 187.658 333.4 187.658 333.9ZM146.701 335.5C147.759 335.9 148.394 336.9 148.077 337.6C147.759 338.3 147.971 339.2 148.5 339.5C149.135 339.9 149.558 340.7 149.558 341.4C149.558 343.1 143.103 344.4 142.15 342.9C141.727 342.3 141.092 344.2 140.668 347.2C139.081 359.6 138.658 361 137.282 361C136.435 361 136.118 360.4 136.435 359.5C136.858 358.7 136.647 358 136.012 358C135.377 358 134.742 358.6 134.424 359.2C134.107 359.9 134.001 356.9 134.213 352.5C134.318 348.1 134.53 342.2 134.636 339.4L134.742 334.3L139.822 334.5C142.573 334.7 145.643 335.1 146.701 335.5ZM168.608 339.2C168.608 340.7 166.492 340 165.433 338.1C163.634 334.8 164.269 333.4 166.492 336C167.656 337.4 168.608 338.8 168.608 339.2ZM172.524 339.2C172.207 339.9 171.995 339.4 171.995 338C171.995 336.6 172.207 336.1 172.524 336.7C172.736 337.4 172.736 338.6 172.524 339.2ZM218.985 338.8C216.657 339.3 215.81 338.5 216.763 337C217.292 336.2 217.927 336.3 219.091 337.2C220.678 338.4 220.573 338.5 218.985 338.8ZM204.592 338C204.592 338.5 204.063 339 203.428 339C202.898 339 202.687 338.5 203.004 338C203.322 337.4 203.851 337 204.168 337C204.38 337 204.592 337.4 204.592 338ZM153.792 339C153.792 339.5 153.263 340 152.628 340C152.098 340 151.887 339.5 152.204 339C152.522 338.4 153.051 338 153.368 338C153.58 338 153.792 338.4 153.792 339ZM194.008 342.2C194.008 344.1 191.786 347 190.304 347C188.717 347 188.188 344.4 189.352 341.7C189.987 340.1 194.008 340.5 194.008 342.2ZM164.693 343.5C164.375 344.3 163.74 345 163.211 345C162.153 345 161.941 342.6 162.893 341.7C164.058 340.6 165.433 342 164.693 343.5ZM220.467 342C220.467 342.5 219.726 343 218.773 343C217.927 343 217.503 342.5 217.821 342C218.138 341.4 218.879 341 219.514 341C220.043 341 220.467 341.4 220.467 342ZM153.157 348.8C152.098 351.7 151.146 353.8 150.934 353.6C150.617 353.4 151.04 350.6 151.781 347.5C152.522 344.4 153.474 342.3 154.003 342.8C154.533 343.3 154.109 346 153.157 348.8ZM245.338 343C245.655 343.5 245.443 344 244.914 344C244.279 344 243.75 343.5 243.75 343C243.75 342.4 243.962 342 244.173 342C244.491 342 245.02 342.4 245.338 343ZM148.923 348.2C148.5 350.6 147.442 353.7 146.595 355.2C145.325 357.3 145.219 358.2 146.172 359.3C147.23 360.4 147.124 361 145.854 362C145.008 362.7 144.584 363.6 144.902 364.1C145.219 364.6 145.113 368.3 144.584 372.3C143.843 379.4 143.843 379.4 143.208 374.9C142.044 365.9 145.537 344 148.183 344C149.241 344 149.453 345 148.923 348.2ZM165.751 347.5C166.174 348.3 165.963 349.2 165.433 349.5C164.798 349.9 164.375 349.2 164.375 348.1C164.375 345.6 165.01 345.4 165.751 347.5ZM206.708 351.5C206.708 352.3 206.285 353 205.65 353C205.121 353 204.909 352.3 205.227 351.5C205.65 350.7 206.073 350 206.285 350C206.497 350 206.708 350.7 206.708 351.5ZM223.959 354.5C223.642 355.4 223.113 355.9 222.901 355.6C222.583 355.3 222.689 354.7 223.113 354.1C224.065 352.5 224.7 352.8 223.959 354.5ZM187.976 357.4C186.918 358.7 185.859 359.6 185.648 359.4C185.224 359 188.717 355 189.458 355C189.669 355 189.034 356.1 187.976 357.4ZM154.321 361C153.898 362.7 153.368 363.9 153.051 363.6C152.733 363.4 152.839 361.7 153.263 360C153.686 358.3 154.215 357.1 154.533 357.4C154.85 357.6 154.744 359.3 154.321 361Z" fill="black"/>
<path d="M143.526 338.9C143.526 340 144.055 340.6 144.478 340.4C144.902 340.1 145.325 340.4 145.325 341.1C145.325 341.8 145.537 342.1 145.854 341.9C146.595 341.2 145.219 337 144.161 337C143.737 337 143.42 337.9 143.526 338.9Z" fill="black"/>
<path d="M49.6517 161.7C49.44 162.7 48.9108 165.5 48.4875 168C47.9583 172.2 47.9583 172.4 49.5458 170.6C50.3925 169.5 51.1334 166.7 51.1334 164.3C51.1334 159.8 50.6042 158.8 49.6517 161.7Z" fill="black"/>
</g>
<defs>
<filter id="filter0_b" x="-514" y="-89" width="1450" height="1034" filterUnits="userSpaceOnUse" color-interpolation-filters="sRGB">
<feFlood flood-opacity="0" result="BackgroundImageFix"/>
<feGaussianBlur in="BackgroundImage" stdDeviation="2.5"/>
<feComposite in2="SourceAlpha" operator="in" result="effect1_backgroundBlur"/>
<feBlend mode="normal" in="SourceGraphic" in2="effect1_backgroundBlur" result="shape"/>
</filter>
</defs>
</svg>
